<?xml version="1.0" standalone="no"?><!DOCTYPE svg PUBLIC "-//W3C//DTD SVG 1.1//EN" "http://www.w3.org/Graphics/SVG/1.1/DTD/svg11.dtd"><svg t="1655045869009" class="icon" viewBox="0 0 1024 1024" version="1.1" xmlns="http://www.w3.org/2000/svg" p-id="1660" xmlns:xlink="http://www.w3.org/1999/xlink" width="64" height="64"><defs><style type="text/css">@font-face { font-family: feedback-iconfont; src: url("//at.alicdn.com/t/font_1031158_u69w8yhxdu.woff2?t=1630033759944") format("woff2"), url("//at.alicdn.com/t/font_1031158_u69w8yhxdu.woff?t=1630033759944") format("woff"), url("//at.alicdn.com/t/font_1031158_u69w8yhxdu.ttf?t=1630033759944") format("truetype"); }
</style></defs><path d="M516.5568 512.8704m-432.3328 0a432.3328 432.3328 0 1 0 864.6656 0 432.3328 432.3328 0 1 0-864.6656 0Z" fill="#ED5DF9" p-id="1661"></path><path d="M291.584 418.7136c-85.0432 0-160.4096 41.3696-207.104 105.0624 4.5568 182.7328 122.368 337.3056 285.952 396.032 103.2192-33.28 177.92-130.048 177.92-244.3776 0-141.7216-114.944-256.7168-256.768-256.7168z" fill="#F27DFF" p-id="1662"></path><path d="M352.512 482.9696l-50.7904 197.7856c-9.0112 35.072 12.1344 70.7584 47.1552 79.7696l240.64 61.7984c35.0208 9.0112 70.7584-12.1344 79.7696-47.1552l78.6432-306.2272c-71.0656 2.6624-247.6032 9.216-395.4176 14.0288z" fill="#F8CAFF" p-id="1663"></path><path d="M757.9648 452.608l-30.208-145.4592a65.49504 65.49504 0 0 0-50.7904-50.7904l-145.4592-30.208c-21.6064-4.5056-44.032 2.2016-59.648 17.8176L223.7952 491.9808c-25.6 25.6-25.6 67.072 0 92.672l175.6672 175.6672c25.6 25.6 67.072 25.6 92.672 0l248.0128-248.0128c15.616-15.6672 22.3232-38.0928 17.8176-59.6992z" fill="#FFFFFF" p-id="1664"></path><path d="M613.632 370.432m-46.08 0a46.08 46.08 0 1 0 92.16 0 46.08 46.08 0 1 0-92.16 0Z" fill="#F27DFF" p-id="1665"></path></svg>